<?xml version="1.0" standalone="no"?>
<!DOCTYPE svg PUBLIC "-//W3C//DTD SVG 20010904//EN"
 "http://www.w3.org/TR/2001/REC-SVG-20010904/DTD/svg10.dtd">
<svg version="1.0" xmlns="http://www.w3.org/2000/svg"
 width="128.000000pt" height="128.000000pt" viewBox="0 0 128.000000 128.000000"
 preserveAspectRatio="xMidYMid meet">
<metadata>
Created by potrace 1.14, written by Peter Selinger 2001-2017
</metadata>
<g transform="translate(0.000000,128.000000) scale(0.100000,-0.100000)"
fill="#000000" stroke="none">
<path d="M572 1095 c-68 -19 -80 -26 -181 -98 -111 -80 -159 -130 -192 -202
-57 -121 -56 -244 2 -373 15 -34 28 -65 28 -69 -1 -3 6 -10 15 -15 9 -5 14
-13 11 -19 -4 -5 -1 -9 5 -9 6 0 8 -5 5 -10 -4 -6 -3 -9 2 -8 12 4 68 -49 68
-65 0 -6 7 -12 15 -12 8 0 44 -14 80 -31 84 -41 151 -54 238 -49 75 5 157 35
215 79 19 14 37 23 41 18 4 -4 6 -1 4 7 -2 8 7 20 20 26 13 7 22 16 21 20 -5
15 46 75 59 70 8 -3 10 0 6 6 -4 6 -3 14 2 18 39 27 88 148 97 238 15 148 -71
319 -210 414 -96 67 -245 94 -351 64z"/>
<path d="M1115 369 c-4 -6 -5 -12 -2 -15 2 -3 7 2 10 11 7 17 1 20 -8 4z"/>
<path d="M1053 353 c0 -9 4 -10 13 -2 7 6 19 7 25 3 7 -4 9 -3 5 4 -9 15 -43
11 -43 -5z"/>
<path d="M1130 340 c0 -5 5 -10 11 -10 5 0 7 5 4 10 -3 6 -8 10 -11 10 -2 0
-4 -4 -4 -10z"/>
<path d="M1012 333 c-7 -2 -17 -14 -23 -26 -9 -20 -9 -20 4 -5 8 10 16 15 19
12 3 -2 8 2 11 11 4 8 5 15 4 14 -1 0 -8 -3 -15 -6z"/>
<path d="M1094 320 c0 -13 4 -16 10 -10 7 7 7 13 0 20 -6 6 -10 3 -10 -10z"/>
<path d="M1075 279 c5 -7 52 -6 59 2 3 2 -10 5 -29 5 -18 0 -32 -3 -30 -7z"/>
<path d="M999 268 c-11 -38 -1 -49 21 -23 11 13 10 14 -5 9 -13 -5 -16 -4 -11
4 4 7 5 12 2 12 -3 0 -6 -1 -7 -2z"/>
<path d="M255 240 c-3 -5 -1 -10 4 -10 6 0 11 5 11 10 0 6 -2 10 -4 10 -3 0
-8 -4 -11 -10z"/>
<path d="M944 232 c0 -10 8 -18 18 -18 16 0 16 2 1 18 -9 10 -17 18 -17 18 -1
0 -2 -8 -2 -18z"/>
<path d="M1040 246 c0 -2 8 -10 18 -17 15 -13 16 -12 3 4 -13 16 -21 21 -21
13z"/>
<path d="M1095 220 c3 -5 8 -10 11 -10 2 0 4 5 4 10 0 6 -5 10 -11 10 -5 0 -7
-4 -4 -10z"/>
</g>
</svg>
